<svg width="24" height="24" viewBox="0 0 24 24" fill="none" xmlns="http://www.w3.org/2000/svg">
<path d="M4.00421 6.41701L0.762207 3.17401L2.17621 1.76001L5.41921 5.00301H20.6602C20.8161 5.003 20.9698 5.03942 21.1091 5.10938C21.2484 5.17933 21.3694 5.28087 21.4624 5.40591C21.5555 5.53094 21.6181 5.67599 21.6451 5.8295C21.6722 5.983 21.6629 6.1407 21.6182 6.29001L19.2182 14.29C19.1565 14.4961 19.0299 14.6768 18.8573 14.8052C18.6847 14.9337 18.4753 15.003 18.2602 15.003H6.00421V17.003H17.0042V19.003H5.00421C4.73899 19.003 4.48464 18.8977 4.2971 18.7101C4.10956 18.5226 4.00421 18.2682 4.00421 18.003V6.41701ZM5.50421 23.003C5.10638 23.003 4.72485 22.845 4.44355 22.5637C4.16224 22.2824 4.00421 21.9008 4.00421 21.503C4.00421 21.1052 4.16224 20.7237 4.44355 20.4423C4.72485 20.161 5.10638 20.003 5.50421 20.003C5.90203 20.003 6.28356 20.161 6.56487 20.4423C6.84617 20.7237 7.00421 21.1052 7.00421 21.503C7.00421 21.9008 6.84617 22.2824 6.56487 22.5637C6.28356 22.845 5.90203 23.003 5.50421 23.003ZM17.5042 23.003C17.1064 23.003 16.7249 22.845 16.4435 22.5637C16.1622 22.2824 16.0042 21.9008 16.0042 21.503C16.0042 21.1052 16.1622 20.7237 16.4435 20.4423C16.7249 20.161 17.1064 20.003 17.5042 20.003C17.902 20.003 18.2836 20.161 18.5649 20.4423C18.8462 20.7237 19.0042 21.1052 19.0042 21.503C19.0042 21.9008 18.8462 22.2824 18.5649 22.5637C18.2836 22.845 17.902 23.003 17.5042 23.003Z" fill="#020617"/>
</svg>
